<?xml version="1.0" encoding="UTF-8" standalone="no"?>
<svg
   version="1.1"
   width="803.24005"
   height="400.82022"
   viewBox="0 0 803.24005 400.82022"
   id="svg564"
   sodipodi:docname="qr.svg"
   inkscape:version="1.2.2 (b0a8486541, 2022-12-01)"
   xmlns:inkscape="http://www.inkscape.org/namespaces/inkscape"
   xmlns:sodipodi="http://sodipodi.sourceforge.net/DTD/sodipodi-0.dtd"
   xmlns="http://www.w3.org/2000/svg"
   xmlns:svg="http://www.w3.org/2000/svg">
  <defs
     id="defs568" />
  <sodipodi:namedview
     id="namedview566"
     pagecolor="#ffffff"
     bordercolor="#000000"
     borderopacity="0.25"
     inkscape:showpageshadow="2"
     inkscape:pageopacity="0.0"
     inkscape:pagecheckerboard="0"
     inkscape:deskcolor="#d1d1d1"
     showgrid="false"
     inkscape:zoom="0.55762872"
     inkscape:cx="373.00805"
     inkscape:cy="612.41466"
     inkscape:window-width="1920"
     inkscape:window-height="1131"
     inkscape:window-x="0"
     inkscape:window-y="0"
     inkscape:window-maximized="1"
     inkscape:current-layer="svg564" />
  <rect
     x="411"
     y="70.820213"
     width="70"
     height="10"
     id="rect2" />
  <rect
     x="491"
     y="70.820213"
     width="20"
     height="10"
     id="rect4" />
  <rect
     x="541"
     y="70.820213"
     width="10"
     height="10"
     id="rect6" />
  <rect
     x="571"
     y="70.820213"
     width="10"
     height="10"
     id="rect8" />
  <rect
     x="591"
     y="70.820213"
     width="30"
     height="10"
     id="rect10" />
  <rect
     x="641"
     y="70.820213"
     width="10"
     height="10"
     id="rect12" />
  <rect
     x="671"
     y="70.820213"
     width="70"
     height="10"
     id="rect14" />
  <rect
     x="411"
     y="80.820213"
     width="10"
     height="10"
     id="rect16" />
  <rect
     x="471"
     y="80.820213"
     width="10"
     height="10"
     id="rect18" />
  <rect
     x="491"
     y="80.820213"
     width="10"
     height="10"
     id="rect20" />
  <rect
     x="511"
     y="80.820213"
     width="20"
     height="10"
     id="rect22" />
  <rect
     x="581"
     y="80.820213"
     width="50"
     height="10"
     id="rect24" />
  <rect
     x="641"
     y="80.820213"
     width="20"
     height="10"
     id="rect26" />
  <rect
     x="671"
     y="80.820213"
     width="10"
     height="10"
     id="rect28" />
  <rect
     x="731"
     y="80.820213"
     width="10"
     height="10"
     id="rect30" />
  <rect
     x="411"
     y="90.820213"
     width="10"
     height="10"
     id="rect32" />
  <rect
     x="431"
     y="90.820213"
     width="30"
     height="10"
     id="rect34" />
  <rect
     x="471"
     y="90.820213"
     width="10"
     height="10"
     id="rect36" />
  <rect
     x="511"
     y="90.820213"
     width="10"
     height="10"
     id="rect38" />
  <rect
     x="531"
     y="90.820213"
     width="10"
     height="10"
     id="rect40" />
  <rect
     x="561"
     y="90.820213"
     width="20"
     height="10"
     id="rect42" />
  <rect
     x="591"
     y="90.820213"
     width="10"
     height="10"
     id="rect44" />
  <rect
     x="641"
     y="90.820213"
     width="10"
     height="10"
     id="rect46" />
  <rect
     x="671"
     y="90.820213"
     width="10"
     height="10"
     id="rect48" />
  <rect
     x="691"
     y="90.820213"
     width="30"
     height="10"
     id="rect50" />
  <rect
     x="731"
     y="90.820213"
     width="10"
     height="10"
     id="rect52" />
  <rect
     x="411"
     y="100.82021"
     width="10"
     height="10"
     id="rect54" />
  <rect
     x="431"
     y="100.82021"
     width="30"
     height="10"
     id="rect56" />
  <rect
     x="471"
     y="100.82021"
     width="10"
     height="10"
     id="rect58" />
  <rect
     x="491"
     y="100.82021"
     width="20"
     height="10"
     id="rect60" />
  <rect
     x="531"
     y="100.82021"
     width="10"
     height="10"
     id="rect62" />
  <rect
     x="551"
     y="100.82021"
     width="50"
     height="10"
     id="rect64" />
  <rect
     x="611"
     y="100.82021"
     width="10"
     height="10"
     id="rect66" />
  <rect
     x="631"
     y="100.82021"
     width="30"
     height="10"
     id="rect68" />
  <rect
     x="671"
     y="100.82021"
     width="10"
     height="10"
     id="rect70" />
  <rect
     x="691"
     y="100.82021"
     width="30"
     height="10"
     id="rect72" />
  <rect
     x="731"
     y="100.82021"
     width="10"
     height="10"
     id="rect74" />
  <rect
     x="411"
     y="110.82021"
     width="10"
     height="10"
     id="rect76" />
  <rect
     x="431"
     y="110.82021"
     width="30"
     height="10"
     id="rect78" />
  <rect
     x="471"
     y="110.82021"
     width="10"
     height="10"
     id="rect80" />
  <rect
     x="491"
     y="110.82021"
     width="10"
     height="10"
     id="rect82" />
  <rect
     x="561"
     y="110.82021"
     width="20"
     height="10"
     id="rect84" />
  <rect
     x="601"
     y="110.82021"
     width="10"
     height="10"
     id="rect86" />
  <rect
     x="651"
     y="110.82021"
     width="10"
     height="10"
     id="rect88" />
  <rect
     x="671"
     y="110.82021"
     width="10"
     height="10"
     id="rect90" />
  <rect
     x="691"
     y="110.82021"
     width="30"
     height="10"
     id="rect92" />
  <rect
     x="731"
     y="110.82021"
     width="10"
     height="10"
     id="rect94" />
  <rect
     x="411"
     y="120.82021"
     width="10"
     height="10"
     id="rect96" />
  <rect
     x="471"
     y="120.82021"
     width="10"
     height="10"
     id="rect98" />
  <rect
     x="491"
     y="120.82021"
     width="20"
     height="10"
     id="rect100" />
  <rect
     x="531"
     y="120.82021"
     width="50"
     height="10"
     id="rect102" />
  <rect
     x="631"
     y="120.82021"
     width="10"
     height="10"
     id="rect104" />
  <rect
     x="651"
     y="120.82021"
     width="10"
     height="10"
     id="rect106" />
  <rect
     x="671"
     y="120.82021"
     width="10"
     height="10"
     id="rect108" />
  <rect
     x="731"
     y="120.82021"
     width="10"
     height="10"
     id="rect110" />
  <rect
     x="411"
     y="130.82021"
     width="70"
     height="10"
     id="rect112" />
  <rect
     x="491"
     y="130.82021"
     width="10"
     height="10"
     id="rect114" />
  <rect
     x="511"
     y="130.82021"
     width="10"
     height="10"
     id="rect116" />
  <rect
     x="531"
     y="130.82021"
     width="10"
     height="10"
     id="rect118" />
  <rect
     x="551"
     y="130.82021"
     width="10"
     height="10"
     id="rect120" />
  <rect
     x="571"
     y="130.82021"
     width="10"
     height="10"
     id="rect122" />
  <rect
     x="591"
     y="130.82021"
     width="10"
     height="10"
     id="rect124" />
  <rect
     x="611"
     y="130.82021"
     width="10"
     height="10"
     id="rect126" />
  <rect
     x="631"
     y="130.82021"
     width="10"
     height="10"
     id="rect128" />
  <rect
     x="651"
     y="130.82021"
     width="10"
     height="10"
     id="rect130" />
  <rect
     x="671"
     y="130.82021"
     width="70"
     height="10"
     id="rect132" />
  <rect
     x="501"
     y="140.82021"
     width="10"
     height="10"
     id="rect134" />
  <rect
     x="551"
     y="140.82021"
     width="20"
     height="10"
     id="rect136" />
  <rect
     x="581"
     y="140.82021"
     width="10"
     height="10"
     id="rect138" />
  <rect
     x="601"
     y="140.82021"
     width="50"
     height="10"
     id="rect140" />
  <rect
     x="441"
     y="150.82021"
     width="10"
     height="10"
     id="rect142" />
  <rect
     x="471"
     y="150.82021"
     width="10"
     height="10"
     id="rect144" />
  <rect
     x="501"
     y="150.82021"
     width="20"
     height="10"
     id="rect146" />
  <rect
     x="531"
     y="150.82021"
     width="40"
     height="10"
     id="rect148" />
  <rect
     x="591"
     y="150.82021"
     width="40"
     height="10"
     id="rect150" />
  <rect
     x="641"
     y="150.82021"
     width="10"
     height="10"
     id="rect152" />
  <rect
     x="681"
     y="150.82021"
     width="30"
     height="10"
     id="rect154" />
  <rect
     x="721"
     y="150.82021"
     width="20"
     height="10"
     id="rect156" />
  <rect
     x="411"
     y="160.82021"
     width="20"
     height="10"
     id="rect158" />
  <rect
     x="451"
     y="160.82021"
     width="20"
     height="10"
     id="rect160" />
  <rect
     x="481"
     y="160.82021"
     width="50"
     height="10"
     id="rect162" />
  <rect
     x="561"
     y="160.82021"
     width="30"
     height="10"
     id="rect164" />
  <rect
     x="601"
     y="160.82021"
     width="10"
     height="10"
     id="rect166" />
  <rect
     x="631"
     y="160.82021"
     width="10"
     height="10"
     id="rect168" />
  <rect
     x="671"
     y="160.82021"
     width="10"
     height="10"
     id="rect170" />
  <rect
     x="701"
     y="160.82021"
     width="40"
     height="10"
     id="rect172" />
  <rect
     x="411"
     y="170.82021"
     width="20"
     height="10"
     id="rect174" />
  <rect
     x="451"
     y="170.82021"
     width="10"
     height="10"
     id="rect176" />
  <rect
     x="471"
     y="170.82021"
     width="10"
     height="10"
     id="rect178" />
  <rect
     x="491"
     y="170.82021"
     width="40"
     height="10"
     id="rect180" />
  <rect
     x="571"
     y="170.82021"
     width="10"
     height="10"
     id="rect182" />
  <rect
     x="591"
     y="170.82021"
     width="10"
     height="10"
     id="rect184" />
  <rect
     x="611"
     y="170.82021"
     width="30"
     height="10"
     id="rect186" />
  <rect
     x="651"
     y="170.82021"
     width="20"
     height="10"
     id="rect188" />
  <rect
     x="681"
     y="170.82021"
     width="10"
     height="10"
     id="rect190" />
  <rect
     x="701"
     y="170.82021"
     width="40"
     height="10"
     id="rect192" />
  <rect
     x="421"
     y="180.82021"
     width="40"
     height="10"
     id="rect194" />
  <rect
     x="501"
     y="180.82021"
     width="20"
     height="10"
     id="rect196" />
  <rect
     x="531"
     y="180.82021"
     width="10"
     height="10"
     id="rect198" />
  <rect
     x="551"
     y="180.82021"
     width="20"
     height="10"
     id="rect200" />
  <rect
     x="581"
     y="180.82021"
     width="40"
     height="10"
     id="rect202" />
  <rect
     x="641"
     y="180.82021"
     width="10"
     height="10"
     id="rect204" />
  <rect
     x="671"
     y="180.82021"
     width="10"
     height="10"
     id="rect206" />
  <rect
     x="691"
     y="180.82021"
     width="20"
     height="10"
     id="rect208" />
  <rect
     x="721"
     y="180.82021"
     width="10"
     height="10"
     id="rect210" />
  <rect
     x="421"
     y="190.82021"
     width="10"
     height="10"
     id="rect212" />
  <rect
     x="461"
     y="190.82021"
     width="20"
     height="10"
     id="rect214" />
  <rect
     x="491"
     y="190.82021"
     width="20"
     height="10"
     id="rect216" />
  <rect
     x="521"
     y="190.82021"
     width="30"
     height="10"
     id="rect218" />
  <rect
     x="561"
     y="190.82021"
     width="30"
     height="10"
     id="rect220" />
  <rect
     x="661"
     y="190.82021"
     width="30"
     height="10"
     id="rect222" />
  <rect
     x="721"
     y="190.82021"
     width="10"
     height="10"
     id="rect224" />
  <rect
     x="411"
     y="200.82021"
     width="10"
     height="10"
     id="rect226" />
  <rect
     x="451"
     y="200.82021"
     width="10"
     height="10"
     id="rect228" />
  <rect
     x="481"
     y="200.82021"
     width="20"
     height="10"
     id="rect230" />
  <rect
     x="531"
     y="200.82021"
     width="10"
     height="10"
     id="rect232" />
  <rect
     x="551"
     y="200.82021"
     width="10"
     height="10"
     id="rect234" />
  <rect
     x="601"
     y="200.82021"
     width="40"
     height="10"
     id="rect236" />
  <rect
     x="651"
     y="200.82021"
     width="30"
     height="10"
     id="rect238" />
  <rect
     x="691"
     y="200.82021"
     width="10"
     height="10"
     id="rect240" />
  <rect
     x="711"
     y="200.82021"
     width="10"
     height="10"
     id="rect242" />
  <rect
     x="731"
     y="200.82021"
     width="10"
     height="10"
     id="rect244" />
  <rect
     x="411"
     y="210.82021"
     width="20"
     height="10"
     id="rect246" />
  <rect
     x="451"
     y="210.82021"
     width="10"
     height="10"
     id="rect248" />
  <rect
     x="471"
     y="210.82021"
     width="10"
     height="10"
     id="rect250" />
  <rect
     x="501"
     y="210.82021"
     width="20"
     height="10"
     id="rect252" />
  <rect
     x="571"
     y="210.82021"
     width="20"
     height="10"
     id="rect254" />
  <rect
     x="611"
     y="210.82021"
     width="20"
     height="10"
     id="rect256" />
  <rect
     x="641"
     y="210.82021"
     width="60"
     height="10"
     id="rect258" />
  <rect
     x="711"
     y="210.82021"
     width="20"
     height="10"
     id="rect260" />
  <rect
     x="411"
     y="220.82021"
     width="30"
     height="10"
     id="rect262" />
  <rect
     x="461"
     y="220.82021"
     width="10"
     height="10"
     id="rect264" />
  <rect
     x="501"
     y="220.82021"
     width="30"
     height="10"
     id="rect266" />
  <rect
     x="541"
     y="220.82021"
     width="10"
     height="10"
     id="rect268" />
  <rect
     x="591"
     y="220.82021"
     width="10"
     height="10"
     id="rect270" />
  <rect
     x="611"
     y="220.82021"
     width="20"
     height="10"
     id="rect272" />
  <rect
     x="641"
     y="220.82021"
     width="10"
     height="10"
     id="rect274" />
  <rect
     x="661"
     y="220.82021"
     width="10"
     height="10"
     id="rect276" />
  <rect
     x="721"
     y="220.82021"
     width="20"
     height="10"
     id="rect278" />
  <rect
     x="411"
     y="230.82021"
     width="70"
     height="10"
     id="rect280" />
  <rect
     x="491"
     y="230.82021"
     width="10"
     height="10"
     id="rect282" />
  <rect
     x="511"
     y="230.82021"
     width="30"
     height="10"
     id="rect284" />
  <rect
     x="571"
     y="230.82021"
     width="10"
     height="10"
     id="rect286" />
  <rect
     x="591"
     y="230.82021"
     width="10"
     height="10"
     id="rect288" />
  <rect
     x="611"
     y="230.82021"
     width="50"
     height="10"
     id="rect290" />
  <rect
     x="671"
     y="230.82021"
     width="10"
     height="10"
     id="rect292" />
  <rect
     x="691"
     y="230.82021"
     width="10"
     height="10"
     id="rect294" />
  <rect
     x="441"
     y="240.82021"
     width="10"
     height="10"
     id="rect296" />
  <rect
     x="461"
     y="240.82021"
     width="10"
     height="10"
     id="rect298" />
  <rect
     x="491"
     y="240.82021"
     width="10"
     height="10"
     id="rect300" />
  <rect
     x="521"
     y="240.82021"
     width="10"
     height="10"
     id="rect302" />
  <rect
     x="561"
     y="240.82021"
     width="20"
     height="10"
     id="rect304" />
  <rect
     x="611"
     y="240.82021"
     width="20"
     height="10"
     id="rect306" />
  <rect
     x="641"
     y="240.82021"
     width="30"
     height="10"
     id="rect308" />
  <rect
     x="701"
     y="240.82021"
     width="10"
     height="10"
     id="rect310" />
  <rect
     x="721"
     y="240.82021"
     width="10"
     height="10"
     id="rect312" />
  <rect
     x="441"
     y="250.82021"
     width="10"
     height="10"
     id="rect314" />
  <rect
     x="461"
     y="250.82021"
     width="70"
     height="10"
     id="rect316" />
  <rect
     x="541"
     y="250.82021"
     width="10"
     height="10"
     id="rect318" />
  <rect
     x="561"
     y="250.82021"
     width="10"
     height="10"
     id="rect320" />
  <rect
     x="581"
     y="250.82021"
     width="60"
     height="10"
     id="rect322" />
  <rect
     x="651"
     y="250.82021"
     width="10"
     height="10"
     id="rect324" />
  <rect
     x="671"
     y="250.82021"
     width="20"
     height="10"
     id="rect326" />
  <rect
     x="701"
     y="250.82021"
     width="10"
     height="10"
     id="rect328" />
  <rect
     x="721"
     y="250.82021"
     width="20"
     height="10"
     id="rect330" />
  <rect
     x="431"
     y="260.82022"
     width="30"
     height="10"
     id="rect332" />
  <rect
     x="481"
     y="260.82022"
     width="10"
     height="10"
     id="rect334" />
  <rect
     x="501"
     y="260.82022"
     width="10"
     height="10"
     id="rect336" />
  <rect
     x="531"
     y="260.82022"
     width="10"
     height="10"
     id="rect338" />
  <rect
     x="551"
     y="260.82022"
     width="10"
     height="10"
     id="rect340" />
  <rect
     x="601"
     y="260.82022"
     width="10"
     height="10"
     id="rect342" />
  <rect
     x="621"
     y="260.82022"
     width="40"
     height="10"
     id="rect344" />
  <rect
     x="671"
     y="260.82022"
     width="10"
     height="10"
     id="rect346" />
  <rect
     x="721"
     y="260.82022"
     width="10"
     height="10"
     id="rect348" />
  <rect
     x="421"
     y="270.82022"
     width="10"
     height="10"
     id="rect350" />
  <rect
     x="451"
     y="270.82022"
     width="30"
     height="10"
     id="rect352" />
  <rect
     x="531"
     y="270.82022"
     width="30"
     height="10"
     id="rect354" />
  <rect
     x="571"
     y="270.82022"
     width="20"
     height="10"
     id="rect356" />
  <rect
     x="611"
     y="270.82022"
     width="50"
     height="10"
     id="rect358" />
  <rect
     x="701"
     y="270.82022"
     width="10"
     height="10"
     id="rect360" />
  <rect
     x="721"
     y="270.82022"
     width="10"
     height="10"
     id="rect362" />
  <rect
     x="421"
     y="280.82022"
     width="30"
     height="10"
     id="rect364" />
  <rect
     x="461"
     y="280.82022"
     width="10"
     height="10"
     id="rect366" />
  <rect
     x="501"
     y="280.82022"
     width="10"
     height="10"
     id="rect368" />
  <rect
     x="531"
     y="280.82022"
     width="20"
     height="10"
     id="rect370" />
  <rect
     x="561"
     y="280.82022"
     width="10"
     height="10"
     id="rect372" />
  <rect
     x="591"
     y="280.82022"
     width="10"
     height="10"
     id="rect374" />
  <rect
     x="611"
     y="280.82022"
     width="20"
     height="10"
     id="rect376" />
  <rect
     x="641"
     y="280.82022"
     width="30"
     height="10"
     id="rect378" />
  <rect
     x="711"
     y="280.82022"
     width="30"
     height="10"
     id="rect380" />
  <rect
     x="411"
     y="290.82022"
     width="20"
     height="10"
     id="rect382" />
  <rect
     x="451"
     y="290.82022"
     width="10"
     height="10"
     id="rect384" />
  <rect
     x="471"
     y="290.82022"
     width="30"
     height="10"
     id="rect386" />
  <rect
     x="541"
     y="290.82022"
     width="20"
     height="10"
     id="rect388" />
  <rect
     x="571"
     y="290.82022"
     width="10"
     height="10"
     id="rect390" />
  <rect
     x="621"
     y="290.82022"
     width="10"
     height="10"
     id="rect392" />
  <rect
     x="641"
     y="290.82022"
     width="60"
     height="10"
     id="rect394" />
  <rect
     x="731"
     y="290.82022"
     width="10"
     height="10"
     id="rect396" />
  <rect
     x="421"
     y="300.82022"
     width="20"
     height="10"
     id="rect398" />
  <rect
     x="461"
     y="300.82022"
     width="10"
     height="10"
     id="rect400" />
  <rect
     x="501"
     y="300.82022"
     width="10"
     height="10"
     id="rect402" />
  <rect
     x="531"
     y="300.82022"
     width="10"
     height="10"
     id="rect404" />
  <rect
     x="551"
     y="300.82022"
     width="20"
     height="10"
     id="rect406" />
  <rect
     x="591"
     y="300.82022"
     width="70"
     height="10"
     id="rect408" />
  <rect
     x="701"
     y="300.82022"
     width="10"
     height="10"
     id="rect410" />
  <rect
     x="721"
     y="300.82022"
     width="10"
     height="10"
     id="rect412" />
  <rect
     x="411"
     y="310.82022"
     width="10"
     height="10"
     id="rect414" />
  <rect
     x="451"
     y="310.82022"
     width="10"
     height="10"
     id="rect416" />
  <rect
     x="471"
     y="310.82022"
     width="10"
     height="10"
     id="rect418" />
  <rect
     x="501"
     y="310.82022"
     width="10"
     height="10"
     id="rect420" />
  <rect
     x="521"
     y="310.82022"
     width="10"
     height="10"
     id="rect422" />
  <rect
     x="571"
     y="310.82022"
     width="10"
     height="10"
     id="rect424" />
  <rect
     x="601"
     y="310.82022"
     width="10"
     height="10"
     id="rect426" />
  <rect
     x="621"
     y="310.82022"
     width="10"
     height="10"
     id="rect428" />
  <rect
     x="641"
     y="310.82022"
     width="60"
     height="10"
     id="rect430" />
  <rect
     x="721"
     y="310.82022"
     width="10"
     height="10"
     id="rect432" />
  <rect
     x="491"
     y="320.82022"
     width="10"
     height="10"
     id="rect434" />
  <rect
     x="531"
     y="320.82022"
     width="10"
     height="10"
     id="rect436" />
  <rect
     x="581"
     y="320.82022"
     width="20"
     height="10"
     id="rect438" />
  <rect
     x="621"
     y="320.82022"
     width="10"
     height="10"
     id="rect440" />
  <rect
     x="651"
     y="320.82022"
     width="10"
     height="10"
     id="rect442" />
  <rect
     x="691"
     y="320.82022"
     width="10"
     height="10"
     id="rect444" />
  <rect
     x="711"
     y="320.82022"
     width="10"
     height="10"
     id="rect446" />
  <rect
     x="731"
     y="320.82022"
     width="10"
     height="10"
     id="rect448" />
  <rect
     x="411"
     y="330.82022"
     width="70"
     height="10"
     id="rect450" />
  <rect
     x="511"
     y="330.82022"
     width="30"
     height="10"
     id="rect452" />
  <rect
     x="561"
     y="330.82022"
     width="10"
     height="10"
     id="rect454" />
  <rect
     x="601"
     y="330.82022"
     width="10"
     height="10"
     id="rect456" />
  <rect
     x="631"
     y="330.82022"
     width="10"
     height="10"
     id="rect458" />
  <rect
     x="651"
     y="330.82022"
     width="10"
     height="10"
     id="rect460" />
  <rect
     x="671"
     y="330.82022"
     width="10"
     height="10"
     id="rect462" />
  <rect
     x="691"
     y="330.82022"
     width="10"
     height="10"
     id="rect464" />
  <rect
     x="721"
     y="330.82022"
     width="10"
     height="10"
     id="rect466" />
  <rect
     x="411"
     y="340.82022"
     width="10"
     height="10"
     id="rect468" />
  <rect
     x="471"
     y="340.82022"
     width="10"
     height="10"
     id="rect470" />
  <rect
     x="551"
     y="340.82022"
     width="10"
     height="10"
     id="rect472" />
  <rect
     x="571"
     y="340.82022"
     width="20"
     height="10"
     id="rect474" />
  <rect
     x="601"
     y="340.82022"
     width="10"
     height="10"
     id="rect476" />
  <rect
     x="621"
     y="340.82022"
     width="40"
     height="10"
     id="rect478" />
  <rect
     x="691"
     y="340.82022"
     width="20"
     height="10"
     id="rect480" />
  <rect
     x="411"
     y="350.82022"
     width="10"
     height="10"
     id="rect482" />
  <rect
     x="431"
     y="350.82022"
     width="30"
     height="10"
     id="rect484" />
  <rect
     x="471"
     y="350.82022"
     width="10"
     height="10"
     id="rect486" />
  <rect
     x="531"
     y="350.82022"
     width="10"
     height="10"
     id="rect488" />
  <rect
     x="551"
     y="350.82022"
     width="20"
     height="10"
     id="rect490" />
  <rect
     x="581"
     y="350.82022"
     width="10"
     height="10"
     id="rect492" />
  <rect
     x="651"
     y="350.82022"
     width="50"
     height="10"
     id="rect494" />
  <rect
     x="731"
     y="350.82022"
     width="10"
     height="10"
     id="rect496" />
  <rect
     x="411"
     y="360.82022"
     width="10"
     height="10"
     id="rect498" />
  <rect
     x="431"
     y="360.82022"
     width="30"
     height="10"
     id="rect500" />
  <rect
     x="471"
     y="360.82022"
     width="10"
     height="10"
     id="rect502" />
  <rect
     x="491"
     y="360.82022"
     width="20"
     height="10"
     id="rect504" />
  <rect
     x="521"
     y="360.82022"
     width="20"
     height="10"
     id="rect506" />
  <rect
     x="551"
     y="360.82022"
     width="50"
     height="10"
     id="rect508" />
  <rect
     x="621"
     y="360.82022"
     width="30"
     height="10"
     id="rect510" />
  <rect
     x="671"
     y="360.82022"
     width="50"
     height="10"
     id="rect512" />
  <rect
     x="731"
     y="360.82022"
     width="10"
     height="10"
     id="rect514" />
  <rect
     x="411"
     y="370.82022"
     width="10"
     height="10"
     id="rect516" />
  <rect
     x="431"
     y="370.82022"
     width="30"
     height="10"
     id="rect518" />
  <rect
     x="471"
     y="370.82022"
     width="10"
     height="10"
     id="rect520" />
  <rect
     x="501"
     y="370.82022"
     width="20"
     height="10"
     id="rect522" />
  <rect
     x="581"
     y="370.82022"
     width="40"
     height="10"
     id="rect524" />
  <rect
     x="651"
     y="370.82022"
     width="20"
     height="10"
     id="rect526" />
  <rect
     x="691"
     y="370.82022"
     width="30"
     height="10"
     id="rect528" />
  <rect
     x="731"
     y="370.82022"
     width="10"
     height="10"
     id="rect530" />
  <rect
     x="411"
     y="380.82022"
     width="10"
     height="10"
     id="rect532" />
  <rect
     x="471"
     y="380.82022"
     width="10"
     height="10"
     id="rect534" />
  <rect
     x="501"
     y="380.82022"
     width="20"
     height="10"
     id="rect536" />
  <rect
     x="531"
     y="380.82022"
     width="10"
     height="10"
     id="rect538" />
  <rect
     x="561"
     y="380.82022"
     width="50"
     height="10"
     id="rect540" />
  <rect
     x="621"
     y="380.82022"
     width="10"
     height="10"
     id="rect542" />
  <rect
     x="641"
     y="380.82022"
     width="30"
     height="10"
     id="rect544" />
  <rect
     x="691"
     y="380.82022"
     width="10"
     height="10"
     id="rect546" />
  <rect
     x="411"
     y="390.82022"
     width="70"
     height="10"
     id="rect548" />
  <rect
     x="501"
     y="390.82022"
     width="10"
     height="10"
     id="rect550" />
  <rect
     x="521"
     y="390.82022"
     width="10"
     height="10"
     id="rect552" />
  <rect
     x="551"
     y="390.82022"
     width="50"
     height="10"
     id="rect554" />
  <rect
     x="621"
     y="390.82022"
     width="10"
     height="10"
     id="rect556" />
  <rect
     x="651"
     y="390.82022"
     width="10"
     height="10"
     id="rect558" />
  <rect
     x="681"
     y="390.82022"
     width="30"
     height="10"
     id="rect560" />
  <rect
     x="721"
     y="390.82022"
     width="10"
     height="10"
     id="rect562" />
  <text
     xml:space="preserve"
     style="font-size:52.6094px;line-height:normal;font-family:FontAwesome;-inkscape-font-specification:FontAwesome;text-align:center;text-decoration-color:#000000;text-anchor:middle;fill:#ffffff;stroke-width:5.48015;stroke-linecap:round;paint-order:markers fill stroke;stop-color:#000000"
     x="400.56781"
     y="39.983147"
     id="text851"><tspan
       sodipodi:role="line"
       id="tspan849"
       x="400.56781"
       y="39.983147"
       style="fill:#000000;stroke-width:5.48015">ge-steven.github.io/la26summer</tspan></text>
</svg>
